# xmcd
#
# Track frame offsets:
#	150
#	17790
#	32190
#	52183
#	69572
#	84958
#	101319
#	120888
#	140029
#	159868
#	179370
#
# Disc length: 2602 seconds
#
# Revision: 1
# Processed by: cddbd v1.5.1PL0 Copyright (c) Steve Scherf et al.
# Submitted via: audiograbber 1.83.01
#
DISCID=880a280b
DTITLE=Dale Peterson - Full Circle
DYEAR=1999
DGENRE=Blues
TTITLE0=Venting Anger
TTITLE1=No Hype
TTITLE2=El Norte
TTITLE3=Cobra
TTITLE4=Mad Dog's Revenge
TTITLE5=Heart Full Of Trouble
TTITLE6=Scary Little Hot Rod Girl
TTITLE7=We Were Friends
TTITLE8=Before It's Too Late
TTITLE9=Heart's Breaking
TTITLE10=M and M Addiction
EXTD=
EXTT0=
EXTT1=
EXTT2=
EXTT3=
EXTT4=
EXTT5=
EXTT6=
EXTT7=
EXTT8=
EXTT9=
EXTT10=
PLAYORDER=
